<?xml version="1.0" encoding="utf-8"?>
<!-- Generator: Adobe Illustrator 15.1.0, SVG Export Plug-In  -->
<!DOCTYPE svg PUBLIC "-//W3C//DTD SVG 1.1//EN" "http://www.w3.org/Graphics/SVG/1.1/DTD/svg11.dtd" [
	<!ENTITY ns_flows "http://ns.adobe.com/Flows/1.0/">
]>
<svg version="1.1"
	 xmlns="http://www.w3.org/2000/svg" xmlns:xlink="http://www.w3.org/1999/xlink" xmlns:a="http://ns.adobe.com/AdobeSVGViewerExtensions/3.0/"
	 x="0px" y="0px" width="150px" height="80px" viewBox="0 0 150 80" overflow="visible" enable-background="new 0 0 150 80"
	 xml:space="preserve">
<defs>
</defs>
<rect fill="#FBB03B" width="150" height="80"/>
<text transform="matrix(1 0 0 1 10.5 39.75)" font-family="'Meddon'" font-size="12">&lt;In the BOOM&gt;</text>
<text transform="matrix(1 0 0 1 10.5 50)" fill="#FFFFFF" font-family="'Meddon'" font-size="12">&lt;In the BOOM&gt;</text>
<g>
	<g>
		<g>
			<g>
				<g>
					<polygon points="5,16.064 27.568,17.147 27.616,16.148 5.033,15.065 					"/>
				</g>
				<g>
					<polygon points="4.783,20.894 27.336,21.976 27.385,20.977 4.816,19.895 					"/>
				</g>
				<g>
					<polygon points="5.257,10.707 27.825,11.79 27.873,10.791 5.29,9.707 					"/>
				</g>
				<polygon points="5.542,4.765 28.11,5.848 28.158,4.849 5.578,3.765 				"/>
				
					<rect x="4.988" y="4.291" transform="matrix(0.9989 0.0479 -0.0479 0.9989 0.7991 -0.7618)" fill="none" width="22.608" height="24"/>
			</g>
			<g>
				<g>
					<polygon points="27.583,17.147 50.152,18.23 50.2,17.231 27.616,16.148 					"/>
				</g>
				<g>
					<polygon points="27.366,21.977 49.92,23.059 49.968,22.061 27.399,20.978 					"/>
				</g>
				<g>
					<polygon points="27.84,11.79 50.409,12.873 50.457,11.874 27.873,10.791 					"/>
				</g>
				<polygon points="28.125,5.848 50.694,6.931 50.742,5.932 28.161,4.849 				"/>
				
					<rect x="27.572" y="5.375" transform="matrix(0.9989 0.0479 -0.0479 0.9989 0.877 -1.8423)" fill="none" width="22.608" height="24"/>
			</g>
			<g>
				<g>
					<polygon points="50.167,18.231 72.735,19.313 72.783,18.315 50.2,17.231 					"/>
				</g>
				<g>
					<polygon points="49.949,23.061 72.503,24.143 72.551,23.144 49.982,22.061 					"/>
				</g>
				<g>
					<polygon points="50.423,12.874 72.992,13.956 73.04,12.957 50.457,11.874 					"/>
				</g>
				<polygon points="50.708,6.932 73.277,8.014 73.325,7.015 50.744,5.932 				"/>
				
					<rect x="50.155" y="6.459" transform="matrix(0.9989 0.0479 -0.0479 0.9989 0.9553 -2.9243)" fill="none" width="22.608" height="24"/>
			</g>
			<g>
				<g>
					<polygon points="72.75,19.314 95.318,20.397 95.366,19.398 72.783,18.315 					"/>
				</g>
				<g>
					<polygon points="72.533,24.144 95.087,25.226 95.135,24.227 72.566,23.145 					"/>
				</g>
				<g>
					<polygon points="73.007,13.957 95.575,15.04 95.623,14.041 73.04,12.957 					"/>
				</g>
				<polygon points="73.292,8.015 95.86,9.098 95.908,8.099 73.328,7.015 				"/>
				
					<rect x="72.738" y="7.541" transform="matrix(0.9989 0.0479 -0.0479 0.9989 1.0326 -4.0034)" fill="none" width="22.608" height="24"/>
			</g>
			<g>
				<g>
					<polygon points="95.333,20.397 117.901,21.48 117.949,20.481 95.366,19.398 					"/>
				</g>
				<g>
					<polygon points="95.116,25.227 117.67,26.309 117.718,25.311 95.149,24.228 					"/>
				</g>
				<g>
					<polygon points="95.59,15.04 118.158,16.123 118.207,15.124 95.623,14.041 					"/>
				</g>
				<polygon points="95.875,9.098 118.443,10.181 118.491,9.182 95.911,8.099 				"/>
				
					<rect x="95.322" y="8.625" transform="matrix(0.9989 0.0479 -0.0479 0.9989 1.1104 -5.0841)" fill="none" width="22.608" height="24"/>
			</g>
			<g>
				<g>
					<polygon points="117.916,21.481 140.485,22.563 140.533,21.565 117.949,20.481 					"/>
				</g>
				<g>
					<polygon points="117.699,26.311 140.253,27.393 140.301,26.394 117.732,25.311 					"/>
				</g>
				<g>
					<polygon points="118.173,16.124 140.742,17.206 140.79,16.207 118.207,15.124 					"/>
				</g>
				<polygon points="118.458,10.182 141.027,11.264 141.075,10.265 118.494,9.182 				"/>
				
					<rect x="117.905" y="9.709" transform="matrix(0.9989 0.0479 -0.0479 0.9989 1.1889 -6.1674)" fill="none" width="22.608" height="24"/>
			</g>
		</g>
	</g>
</g>
<g>
	<g>
		<g>
			<g>
				<g>
					
						<rect x="138.154" y="62.277" transform="matrix(0.9987 -0.0509 0.0509 0.9987 -3.0483 7.1751)" fill="none" width="2.282" height="2.273"/>
					<circle fill-rule="evenodd" clip-rule="evenodd" fill="#FFE2E9" cx="139.295" cy="63.414" r="1.142"/>
				</g>
			</g>
			<g>
				<g>
					
						<rect x="132.776" y="62.552" transform="matrix(0.9987 -0.0509 0.0509 0.9987 -3.0692 6.9016)" fill="none" width="2.282" height="2.273"/>
					<circle fill-rule="evenodd" clip-rule="evenodd" fill="#FFE2E9" cx="133.917" cy="63.689" r="1.142"/>
				</g>
			</g>
			<g>
				<g>
					
						<rect x="128.431" y="62.774" transform="matrix(0.9987 -0.0513 0.0513 0.9987 -3.1106 6.7373)" fill="none" width="2.282" height="2.273"/>
					<circle fill-rule="evenodd" clip-rule="evenodd" fill="#FFE2E9" cx="129.573" cy="63.911" r="1.142"/>
				</g>
			</g>
			<g>
				<g>
					
						<rect x="124.086" y="62.996" transform="matrix(0.9987 -0.0509 0.0509 0.9987 -3.1019 6.4569)" fill="none" width="2.283" height="2.273"/>
					<circle fill-rule="evenodd" clip-rule="evenodd" fill="#FFE2E9" cx="125.228" cy="64.132" r="1.141"/>
				</g>
			</g>
			<g>
				<g>
					
						<rect x="119.741" y="63.218" transform="matrix(0.9987 -0.0509 0.0509 0.9987 -3.1188 6.236)" fill="none" width="2.283" height="2.273"/>
					<circle fill-rule="evenodd" clip-rule="evenodd" fill="#FFE2E9" cx="120.883" cy="64.354" r="1.141"/>
				</g>
			</g>
			<g>
				<g>
					
						<rect x="115.396" y="63.439" transform="matrix(0.9987 -0.0509 0.0509 0.9987 -3.1357 6.0152)" fill="none" width="2.283" height="2.273"/>
					<circle fill-rule="evenodd" clip-rule="evenodd" fill="#FFE2E9" cx="116.538" cy="64.577" r="1.141"/>
				</g>
			</g>
			<g>
				<g>
					
						<rect x="111.052" y="63.662" transform="matrix(0.9987 -0.0513 0.0513 0.9987 -3.1779 5.8436)" fill="none" width="2.283" height="2.273"/>
					<circle fill-rule="evenodd" clip-rule="evenodd" fill="#FFE2E9" cx="112.193" cy="64.798" r="1.142"/>
				</g>
			</g>
			<g>
				<g>
					
						<rect x="106.707" y="63.884" transform="matrix(0.9987 -0.0509 0.0509 0.9987 -3.1696 5.5735)" fill="none" width="2.283" height="2.273"/>
					<circle fill-rule="evenodd" clip-rule="evenodd" fill="#FFE2E9" cx="107.848" cy="65.02" r="1.142"/>
				</g>
			</g>
			<g>
				<g>
					
						<rect x="102.362" y="64.105" transform="matrix(0.9987 -0.0509 0.0509 0.9987 -3.1878 5.355)" fill="none" width="2.282" height="2.273"/>
					
						<ellipse transform="matrix(-0.9987 0.0513 -0.0513 -0.9987 210.2189 125.0862)" fill-rule="evenodd" clip-rule="evenodd" fill="#FFE2E9" cx="103.503" cy="65.242" rx="1.142" ry="1.136"/>
				</g>
			</g>
			<g>
				<g>
					
						<rect x="98.018" y="64.327" transform="matrix(0.9987 -0.0509 0.0509 0.9987 -3.2047 5.134)" fill="none" width="2.282" height="2.273"/>
					<circle fill-rule="evenodd" clip-rule="evenodd" fill="#FFE2E9" cx="99.159" cy="65.464" r="1.142"/>
				</g>
			</g>
			<g>
				<g>
					
						<rect x="93.672" y="64.549" transform="matrix(0.9987 -0.0513 0.0513 0.9987 -3.2477 4.9549)" fill="none" width="2.282" height="2.273"/>
					<circle fill-rule="evenodd" clip-rule="evenodd" fill="#FFE2E9" cx="94.814" cy="65.686" r="1.142"/>
				</g>
			</g>
			<g>
				<g>
					
						<rect x="89.328" y="64.771" transform="matrix(0.9987 -0.0509 0.0509 0.9987 -3.2386 4.6921)" fill="none" width="2.282" height="2.273"/>
					<circle fill-rule="evenodd" clip-rule="evenodd" fill="#FFE2E9" cx="90.469" cy="65.908" r="1.142"/>
				</g>
			</g>
			<g>
				<g>
					
						<rect x="84.982" y="64.993" transform="matrix(0.9987 -0.0509 0.0509 0.9987 -3.2542 4.4692)" fill="none" width="2.283" height="2.273"/>
					<circle fill-rule="evenodd" clip-rule="evenodd" fill="#FFE2E9" cx="86.124" cy="66.13" r="1.141"/>
				</g>
			</g>
			<g>
				<g>
					
						<rect x="80.638" y="65.215" transform="matrix(0.9987 -0.0509 0.0509 0.9987 -3.2711 4.2484)" fill="none" width="2.283" height="2.273"/>
					<circle fill-rule="evenodd" clip-rule="evenodd" fill="#FFE2E9" cx="81.779" cy="66.352" r="1.141"/>
				</g>
			</g>
			<g>
				<g>
					
						<rect x="76.293" y="65.437" transform="matrix(0.9987 -0.0513 0.0513 0.9987 -3.3148 4.062)" fill="none" width="2.283" height="2.273"/>
					<circle fill-rule="evenodd" clip-rule="evenodd" fill="#FFE2E9" cx="77.435" cy="66.574" r="1.141"/>
				</g>
			</g>
			<g>
				<g>
					
						<rect x="71.948" y="65.659" transform="matrix(0.9987 -0.0509 0.0509 0.9987 -3.3057 3.8075)" fill="none" width="2.283" height="2.273"/>
					<circle fill-rule="evenodd" clip-rule="evenodd" fill="#FFE2E9" cx="73.09" cy="66.795" r="1.141"/>
				</g>
			</g>
			<g>
				<g>
					
						<rect x="67.604" y="65.881" transform="matrix(0.9987 -0.0509 0.0509 0.9987 -3.3226 3.5866)" fill="none" width="2.283" height="2.273"/>
					
						<ellipse transform="matrix(-0.9987 0.0513 -0.0513 -0.9987 140.8394 130.4178)" fill-rule="evenodd" clip-rule="evenodd" fill="#FFE2E9" cx="68.745" cy="67.018" rx="1.141" ry="1.136"/>
				</g>
			</g>
			<g>
				<g>
					
						<rect x="63.259" y="66.103" transform="matrix(0.9987 -0.0513 0.0513 0.9987 -3.3668 3.3946)" fill="none" width="2.283" height="2.273"/>
					<circle fill-rule="evenodd" clip-rule="evenodd" fill="#FFE2E9" cx="64.4" cy="67.24" r="1.141"/>
				</g>
			</g>
			<g>
				<g>
					
						<rect x="58.914" y="66.325" transform="matrix(0.9987 -0.0509 0.0509 0.9987 -3.3565 3.1448)" fill="none" width="2.283" height="2.273"/>
					<circle fill-rule="evenodd" clip-rule="evenodd" fill="#FFE2E9" cx="60.055" cy="67.461" r="1.142"/>
				</g>
			</g>
			<g>
				<g>
					
						<rect x="54.569" y="66.547" transform="matrix(0.9987 -0.0509 0.0509 0.9987 -3.3727 2.9232)" fill="none" width="2.283" height="2.273"/>
					<circle fill-rule="evenodd" clip-rule="evenodd" fill="#FFE2E9" cx="55.71" cy="67.684" r="1.141"/>
				</g>
			</g>
			<g>
				<g>
					
						<rect x="50.224" y="66.769" transform="matrix(0.9987 -0.0509 0.0509 0.9987 -3.3903 2.703)" fill="none" width="2.283" height="2.273"/>
					<circle fill-rule="evenodd" clip-rule="evenodd" fill="#FFE2E9" cx="51.365" cy="67.906" r="1.141"/>
				</g>
			</g>
			<g>
				<g>
					
						<rect x="45.879" y="66.991" transform="matrix(0.9987 -0.0513 0.0513 0.9987 -3.4353 2.5036)" fill="none" width="2.283" height="2.273"/>
					<circle fill-rule="evenodd" clip-rule="evenodd" fill="#FFE2E9" cx="47.021" cy="68.127" r="1.141"/>
				</g>
			</g>
			<g>
				<g>
					
						<rect x="41.534" y="67.213" transform="matrix(0.9987 -0.0509 0.0509 0.9987 -3.4242 2.2612)" fill="none" width="2.283" height="2.273"/>
					<circle fill-rule="evenodd" clip-rule="evenodd" fill="#FFE2E9" cx="42.676" cy="68.349" r="1.142"/>
				</g>
			</g>
			<g>
				<g>
					
						<rect x="37.19" y="67.435" transform="matrix(0.9987 -0.0509 0.0509 0.9987 -3.4412 2.0403)" fill="none" width="2.283" height="2.273"/>
					<circle fill-rule="evenodd" clip-rule="evenodd" fill="#FFE2E9" cx="38.331" cy="68.571" r="1.141"/>
				</g>
			</g>
			<g>
				<g>
					
						<rect x="32.845" y="67.656" transform="matrix(0.9987 -0.0509 0.0509 0.9987 -3.4581 1.8194)" fill="none" width="2.283" height="2.273"/>
					<circle fill-rule="evenodd" clip-rule="evenodd" fill="#FFE2E9" cx="33.986" cy="68.793" r="1.141"/>
				</g>
			</g>
			<g>
				<g>
					
						<rect x="28.5" y="67.878" transform="matrix(0.9987 -0.0513 0.0513 0.9987 -3.5038 1.6126)" fill="none" width="2.283" height="2.273"/>
					<circle fill-rule="evenodd" clip-rule="evenodd" fill="#FFE2E9" cx="29.641" cy="69.015" r="1.141"/>
				</g>
			</g>
			<g>
				<g>
					
						<rect x="24.155" y="68.101" transform="matrix(0.9987 -0.0509 0.0509 0.9987 -3.492 1.3776)" fill="none" width="2.283" height="2.273"/>
					<circle fill-rule="evenodd" clip-rule="evenodd" fill="#FFE2E9" cx="25.297" cy="69.237" r="1.141"/>
				</g>
			</g>
			<g>
				<g>
					<circle fill="#FFE2E9" cx="22.428" cy="72.726" r="0.864"/>
					<line fill="#FFE2E9" x1="22.428" y1="72.726" x2="22.428" y2="72.726"/>
				</g>
				<g>
					<circle fill="#FFE2E9" cx="22.312" cy="70.504" r="0.865"/>
					<line fill="#FFE2E9" x1="22.312" y1="70.504" x2="22.312" y2="70.504"/>
				</g>
				<g>
					<circle fill="#FFE2E9" cx="22.195" cy="68.281" r="0.864"/>
					<line fill="#FFE2E9" x1="22.195" y1="68.281" x2="22.195" y2="68.281"/>
				</g>
				<g>
					<circle fill="#FFE2E9" cx="22.079" cy="66.059" r="0.864"/>
					<line fill="#FFE2E9" x1="22.079" y1="66.059" x2="22.079" y2="66.059"/>
				</g>
				<g>
					<circle fill="#FFE2E9" cx="20.363" cy="71.759" r="0.864"/>
					<line fill="#FFE2E9" x1="20.363" y1="71.761" x2="20.363" y2="71.761"/>
				</g>
				<g>
					<circle fill="#FFE2E9" cx="20.247" cy="69.538" r="0.865"/>
					<line fill="#FFE2E9" x1="20.246" y1="69.538" x2="20.246" y2="69.538"/>
				</g>
				<g>
					<circle fill="#FFE2E9" cx="20.13" cy="67.315" r="0.865"/>
					<line fill="#FFE2E9" x1="20.13" y1="67.315" x2="20.13" y2="67.315"/>
				</g>
				<g>
					<circle fill="#FFE2E9" cx="18.223" cy="70.821" r="0.865"/>
					<line fill="#FFE2E9" x1="18.224" y1="70.819" x2="18.224" y2="70.819"/>
				</g>
				<g>
					<path fill="#FFE2E9" d="M18.174,69.459c-0.478,0.038-0.896-0.316-0.932-0.793c-0.037-0.478,0.321-0.893,0.799-0.932
						c0.478-0.035,0.896,0.322,0.932,0.797C19.009,69.007,18.651,69.423,18.174,69.459z"/>
					<line fill="#FFE2E9" x1="18.107" y1="68.6" x2="18.107" y2="68.6"/>
				</g>
				<g>
					<circle fill="#FFE2E9" cx="16.124" cy="69.856" r="0.865"/>
					<line fill="#FFE2E9" x1="16.124" y1="69.855" x2="16.124" y2="69.855"/>
				</g>
			</g>
		</g>
	</g>
</g>
</svg>
